<svg width="32" height="32" viewBox="0 0 32 32" fill="none" xmlns="http://www.w3.org/2000/svg">
<path d="M3.33337 15.9997C3.33337 10.0286 3.33337 7.04299 5.18836 5.18799C7.04336 3.33301 10.0289 3.33301 16 3.33301C21.9711 3.33301 24.9567 3.33301 26.8118 5.18799C28.6667 7.04299 28.6667 10.0286 28.6667 15.9997C28.6667 21.9707 28.6667 24.9563 26.8118 26.8114C24.9567 28.6663 21.9711 28.6663 16 28.6663C10.0289 28.6663 7.04336 28.6663 5.18836 26.8114C3.33337 24.9563 3.33337 21.9707 3.33337 15.9997Z" stroke="white" stroke-width="3" stroke-linejoin="round"/>
<path d="M22 16C22 19.3137 19.3137 22 16 22C12.6863 22 10 19.3137 10 16C10 12.6863 12.6863 10 16 10C19.3137 10 22 12.6863 22 16Z" stroke="white" stroke-width="3"/>
<path d="M23.3438 8.66699H23.3318" stroke="white" stroke-width="3" stroke-linecap="round" stroke-linejoin="round"/>
</svg>
