<svg width="29" height="29" viewBox="0 0 29 29" fill="none" xmlns="http://www.w3.org/2000/svg">
<path d="M14.3307 0C15.7298 0 16.8318 1.05671 17.5353 2.48255L19.8847 7.22021C19.9559 7.36684 20.1249 7.57331 20.3787 7.76219C20.6323 7.95087 20.8807 8.05495 21.0441 8.0824L25.2969 8.79484C26.8331 9.05297 28.1207 9.80599 28.5387 11.1172C28.9563 12.4273 28.3445 13.7888 27.2397 14.8955L27.2386 14.8967L23.9347 18.2279C23.8038 18.3599 23.6571 18.6085 23.5651 18.9325C23.4738 19.2544 23.4657 19.5476 23.5071 19.7369L23.5077 19.7396L24.4529 23.8605C24.845 25.5756 24.715 27.2764 23.5054 28.1656C22.2915 29.0577 20.6329 28.6623 19.1259 27.7648L15.1394 25.3853C14.9719 25.2853 14.6845 25.2043 14.3374 25.2043C13.9929 25.2043 13.6994 25.2843 13.521 25.388L13.5185 25.3895L9.53977 27.7643C8.03467 28.6649 6.37799 29.0533 5.16408 28.1603C3.95525 27.2709 3.81879 25.5733 4.21208 23.8596L5.15713 19.7396L5.15771 19.7369C5.19915 19.5476 5.19104 19.2544 5.09967 18.9325C5.00767 18.6085 4.86099 18.3599 4.73004 18.2279L1.42373 14.8941C0.326134 13.7875 -0.283786 12.4272 0.130534 11.119C0.546054 9.807 1.83117 9.05307 3.36837 8.79475L7.61769 8.08292L7.61904 8.08269C7.77483 8.05567 8.01953 7.95275 8.27257 7.76357C8.52608 7.57405 8.69539 7.36713 8.76676 7.22021L8.77036 7.21289L11.1168 2.48129L11.1177 2.47943C11.8279 1.05477 12.9333 0 14.3307 0Z" fill="#141B34"/>
</svg>
