<svg width="244" height="96" viewBox="0 0 244 96" fill="none" xmlns="http://www.w3.org/2000/svg">
<path fill-rule="evenodd" clip-rule="evenodd" d="M15.0121 35.3597C0.109547 47.1213 -7.58233 64.4246 10.6129 77.3843C26.3154 88.572 53.2947 92.2151 75.2205 94.1545C97.2321 96.1035 119.356 95.7208 141.124 94.0791C177.939 91.3068 245.939 82.7503 243.114 51.8386C241.494 34.1224 217.798 16.5341 193.939 7.98116C165.19 -2.32455 131.409 -1.17695 101.23 3.20987C70.5911 7.66163 41.5311 16.5372 22.6513 32.5015C7.37428 45.4199 -4.42168 66.5652 15.3471 81.0248C32.8123 93.8005 65.3706 94.7789 89.0819 93.4027C117.808 91.7342 146.432 89.0673 173.67 83.4362C198.657 78.2677 225.05 69.886 237.134 54.5024C245.718 43.5697 244.533 31.4991 228.517 23.0554C212.105 14.4011 188.35 11.6859 168.162 9.96359C145.967 8.07056 124.305 8.07607 102.391 9.80621C97.1554 10.2211 91.915 10.6312 86.6754 11.0196C84.3378 11.1943 85.2658 13.4582 87.5812 13.2842C102.173 12.1986 116.612 10.6755 131.404 10.7081C141.793 10.7331 152.212 11.1366 162.59 11.8476C184.138 13.3265 208.86 16.0466 226.604 24.9712C247.922 35.6976 237.789 53.3414 222.629 63.3578C201.934 77.0348 169.395 82.7349 140.526 86.5113C113.139 90.0939 82.5844 93.4049 54.278 90.5308C40.5626 89.1377 26.4542 85.691 17.0524 78.8131C6.19198 70.8698 7.58437 59.9622 11.8812 50.9623C22.423 28.9037 53.0848 15.0554 86.5347 8.18294C118.717 1.57475 156.27 -1.21415 188.652 8.7759C204.789 13.7517 217.685 21.9844 227.268 31.4671C234.896 39.0187 240.647 47.6742 239.316 56.5526C237.042 71.7259 211.82 79.9431 191.77 84.5563C168.346 89.9424 142.635 92.2739 117.506 93.0239C94.0591 93.7227 69.8092 92.4054 46.9795 87.9774C34.2439 85.5044 21.4431 81.6898 12.3827 75.237C2.23393 68.0058 1.75907 58.2366 6.25776 49.8031C12.2715 38.5331 26.8557 29.4939 41.5881 22.6298C56.1709 15.8339 74.3374 10.2882 93.0777 9.8509C95.4141 9.79676 95.5059 7.49052 93.1474 7.54531C62.3953 8.26164 33.3122 20.9151 15.0121 35.3597Z" fill="#FFD700"/>
</svg>
