<svg width="32" height="32" viewBox="0 0 32 32" fill="none" xmlns="http://www.w3.org/2000/svg">
<path fill-rule="evenodd" clip-rule="evenodd" d="M2 12.6667C2 12.2985 2.29848 12 2.66667 12H8.66667C9.03485 12 9.33333 12.2985 9.33333 12.6667V29.3333C9.33333 29.7015 9.03485 30 8.66667 30H2.66667C2.29848 30 2 29.7015 2 29.3333V12.6667Z" fill="white"/>
<path fill-rule="evenodd" clip-rule="evenodd" d="M2 5.66667C2 3.64163 3.64163 2 5.66667 2C7.69171 2 9.33333 3.64163 9.33333 5.66667C9.33333 7.69171 7.69171 9.33333 5.66667 9.33333C3.64163 9.33333 2 7.69171 2 5.66667Z" fill="white"/>
<path fill-rule="evenodd" clip-rule="evenodd" d="M12 12.6667C12 12.2985 12.2985 12 12.6667 12H18.6668C19.0349 12 19.3335 12.2985 19.3335 12.6667V13.286C20.3749 12.4804 21.6629 12.0003 23.0624 12.0003C26.4979 12.0003 30.0001 14.9351 30.0001 18.6669L29.9983 29.3335C29.9983 29.7016 29.6997 30 29.3316 30H23.3333C22.9651 30 22.6667 29.7015 22.6667 29.3333V21.0003C22.6667 20.0799 21.9204 19.3336 21 19.3336C20.0796 19.3336 19.3335 20.0799 19.3335 21.0003V29.3333C19.3335 29.7015 19.0349 30 18.6668 30H12.6667C12.2985 30 12 29.7015 12 29.3333V12.6667Z" fill="white"/>
</svg>
