<svg width="40" height="40" viewBox="0 0 40 40" fill="none" xmlns="http://www.w3.org/2000/svg">
<path d="M12.339 24.0666C7.41013 25.2619 3.75 29.7036 3.75 35.0001C3.75 35.6904 4.30965 36.2501 5 36.2501H25C25.6903 36.2501 26.25 35.6904 26.25 35.0001C26.25 29.7036 22.5898 25.2619 17.661 24.0666C20.2543 23.0147 22.0833 20.4709 22.0833 17.5001C22.0833 13.5881 18.912 10.4167 15 10.4167C11.088 10.4167 7.91667 13.5881 7.91667 17.5001C7.91667 20.4709 9.74565 23.0147 12.339 24.0666Z" fill="#14120D"/>
<path d="M18.3091 8.50323C21.9712 9.85058 24.5834 13.3702 24.5834 17.5C24.5834 19.7595 23.8017 21.8347 22.4956 23.4715C24.7611 24.9472 26.5649 27.0722 27.6422 29.5833H35.0001C35.6906 29.5833 36.2501 29.0237 36.2501 28.3333C36.2501 23.0368 32.5901 18.5952 27.6611 17.3998C30.2544 16.3479 32.0834 13.8042 32.0834 10.8333C32.0834 6.92132 28.9122 3.75 25.0001 3.75C21.9044 3.75 19.2726 5.7359 18.3091 8.50323Z" fill="#14120D"/>
</svg>
