<svg width="16" height="14" viewBox="0 0 16 14" fill="none" xmlns="http://www.w3.org/2000/svg">
<path d="M1.00001 8.00009C0.447809 8.00009 9.20662e-06 7.55238 9.23076e-06 7.00008C0.000109391 6.44778 0.447809 6.00008 1.00001 6.00008L13.2608 6.00009C12.7464 5.42659 12.0579 4.78135 11.3448 4.16216C10.6124 3.52625 9.87641 2.93638 9.32231 2.50397C9.04591 2.28829 8.48861 1.8615 8.32821 1.7403C7.95261 1.40015 7.88761 0.824196 8.19441 0.407286C8.52181 -0.0372145 9.14821 -0.132725 9.59281 0.194395C9.76051 0.321005 10.2669 0.703675 10.5528 0.926815C11.1237 1.37232 11.8879 1.98609 12.6553 2.65241C13.4178 3.31438 14.2061 4.04823 14.8116 4.73346C15.1132 5.07479 15.3912 5.42749 15.5987 5.77159C15.7896 6.08829 16 6.52399 16.0001 7.00009L15.9903 7.17679C15.9474 7.58309 15.7656 7.95059 15.5987 8.22759C15.3912 8.57179 15.1133 8.92519 14.8116 9.26669C14.2061 9.95189 13.4177 10.6858 12.6553 11.3477C11.8879 12.014 11.1237 12.6278 10.5528 13.0733C10.2669 13.2964 9.76051 13.6791 9.59281 13.8057C9.14821 14.1329 8.52281 14.0374 8.19541 13.5928C7.88831 13.1759 7.95241 12.6001 8.32821 12.2598C8.32821 12.2598 8.57511 12.0694 8.65531 12.0089C8.81581 11.8877 9.04591 11.7119 9.32231 11.4962C9.87641 11.0637 10.6124 10.4739 11.3448 9.83799C12.058 9.21869 12.7464 8.57359 13.2608 8.00009L1.00001 8.00009Z" fill="#141B34"/>
</svg>
